- 
http://www.Speed.Cd 
       
http://www.Speed.Cd       the fast  and The Hottest Private Tracker on the net

(((--Registration will be open on june every weekend--)))

Please Seed back to make the speed Faster!!!

and don't forget to visit      ...... http://www.Speed.Cd..........
-Red Riding Hood 2011 R5 XviD-BiDA


Format                           : AVI
Format/Info                      : Audio Video Interleave
File size                        : 702 MiB
Duration                         : 1h 39mn
Overall bit rate                 : 984 Kbps
Writing application              : MEncoder SVN-r1.0~rc3+svn20090426-4.4.3
Writing library                  : VirtualDub build 32842/release

Video
ID                               : 0
Format                           : MPEG-4 Visual
Format profile                   : Advanced Simple@L5
Format settings, BVOP            : Yes
Format settings, QPel            : No
Format settings, GMC             : No warppoints
Format settings, Matrix          : Custom
Codec ID                         : XVID
Codec ID/Hint                    : XviD
Duration                         : 1h 39mn
Bit rate                         : 850 Kbps
Width                            : 640 pixels
Height                           : 272 pixels
Display aspect ratio             : 2.35:1
Frame rate                       : 24.000 fps
Original frame rate              : 25.000 fps
Resolution                       : 8 bits
Colorimetry                      : 4:2:0
Scan type                        : Progressive
Bits/(Pixel*Frame)               : 0.204
Stream size                      : 607 MiB (86%)
Writing library                  : XviD 58

Audio
ID                               : 1
Format                           : MPEG Audio
Format version                   : Version 1
Format profile                   : Layer 3
Codec ID                         : 55
Codec ID/Hint                    : MP3
Duration                         : 1h 35mn
Bit rate mode                    : Constant
Bit rate                         : 128 Kbps
Channel(s)                       : 2 channels
Sampling rate                    : 44.1 KHz
Video delay                      : 2s 508ms
Stream size                      : 87.2 MiB (12%)
Alignment                        : Split accross interleaves
Interleave, duration             : 27 ms (0.66 video frame)
Interleave, preload duration     : 1440 ms

Link: http://www.imdb.com/title/tt1486185/

Plot: Lazar (Michael Shanks) that Valerie will marry his son Henry (Max Irons).

Valerie plans to run away with Peter, but their plans are put on hold when the town sirens erupt, telling the couple that the Wolf who terrorizes their village has struck again. The victim is found to be Valerie's older sister Lucy. The townspeople have offered a monthly sacrifice to the Wolf and made it clear to stay away from the woods but Lucy ventured there after discovering that Valerie had been promised in engagement to Henry -- whom she was in love with.

Adrian, Henry, Peter, Cesaire, and the other men venture out into the woods to hunt the Wolf and manage to behead one, Adrian is killed in the process. The men bring back a common gray wolf, thinking it is the one that has been terrorizing the village.

cast:

    Amanda Seyfried as Valerie
    Virginia Madsen as Suzette
    Billy Burke as Cesaire
    Julie Christie as Grandmother
    Shiloh Fernandez as Peter
    Gary Oldman as Father Solomon
    Max Irons as Henry Lazar
    Michael Shanks as Adrien Lazar
    Christine Willes as Madame Lazar
    Michael Hogan as The Reeve
    Lukas Haas as Father August
    Alexandria Malliot as Lucie

eNJOY


[imgw]http://bitpic.bitboxes.co.uk/images/225red_riding_hood_poster.jpg[/imgw]


[color=blue][b]Screenshots[/b][/color]

[imgw]http://bitpic.bitboxes.co.uk/images/961skp95hnzeupglz81x8by.png[/imgw]

[imgw]http://bitpic.bitboxes.co.uk/images/139l6bwvvvtcbqwslgwm8.png[/imgw]

[imgw]http://bitpic.bitboxes.co.uk/images/484fn2zdnspn1mcns0a7j1.png[/imgw]

[imgw]http://bitpic.bitboxes.co.uk/images/721b70h37152ex4wwppc9k.png[/imgw]

[color=Darkblue][b]eNJOY[/b][/color]